# xmcd
#
# Track frame offsets:
#	150
#	23447
#	50450
#	66821
#	84808
#	107125
#	128554
#	148037
#	161425
#	176571
#	190576
#	210181
#	227767
#	254696
#	271107
#	292887
#	317868
#
# Disc length: 4489 seconds
#
# Revision: 0
# Processed by: cddbd v1.5.2PL0 Copyright (c) Steve Scherf et al.
# Submitted via: audiograbber 1.83.01
#
DISCID=dd118711
DTITLE=Rick Riordan - Helden des Olymp - 05. Das Blut des Olymp [CD 4)
DYEAR=2015
DGENRE=Jugend
TTITLE0=052
TTITLE1=053
TTITLE2=054
TTITLE3=055
TTITLE4=056
TTITLE5=057
TTITLE6=058
TTITLE7=059
TTITLE8=060
TTITLE9=061
TTITLE10=062
TTITLE11=063
TTITLE12=064
TTITLE13=065
TTITLE14=066
TTITLE15=067
TTITLE16=068
EXTD=
EXTT0=
EXTT1=
EXTT2=
EXTT3=
EXTT4=
EXTT5=
EXTT6=
EXTT7=
EXTT8=
EXTT9=
EXTT10=
EXTT11=
EXTT12=
EXTT13=
EXTT14=
EXTT15=
EXTT16=
PLAYORDER=
